# xmcd
#
# Track frame offsets:
#	151
#	14463
#	32315
#	48360
#	64687
#	88900
#	101469
#	130741
#	143857
#	159534
#	179133
#	191529
#	220268
#	229394
#
# Disc length: 3372 seconds
#
# Revision: 1
# Processed by: cddbd v1.5PL3 Copyright (c) Steve Scherf et al.
# Submitted via: audiograbber 1.83.01
#
DISCID=c30d2a0e
DTITLE=Vidar Busk and His True Believers - Atomic Swing
DYEAR=1999
DGENRE=
TTITLE0=Sho' nuff
TTITLE1=Red lipstick
TTITLE2=West side baby
TTITLE3=Hold on
TTITLE4=Shoot ya down
TTITLE5=Keep it way up high
TTITLE6=Harlem nocturne
TTITLE7=Sally Sue Brown
TTITLE8=Don't diz me babe
TTITLE9=She's a babe
TTITLE10=Two hits and a sneeze
TTITLE11=Atomic swing
TTITLE12=Dream on silver surfer...
TTITLE13=Thirteen women
EXTD=
EXTT0=
EXTT1=
EXTT2=
EXTT3=
EXTT4=
EXTT5=
EXTT6=
EXTT7=
EXTT8=
EXTT9=
EXTT10=
EXTT11=
EXTT12=
EXTT13=
PLAYORDER=
